<?xml version="1.0" encoding="UTF-8"?>
<!DOCTYPE svg PUBLIC "-//W3C//DTD SVG 1.1//EN" "http://www.w3.org/Graphics/SVG/1.1/DTD/svg11.dtd">
<!-- Creator: CorelDRAW 2021 (64 Bit) -->
<svg xmlns="http://www.w3.org/2000/svg" xml:space="preserve" width="65.3995mm" height="63.7695mm" version="1.1" style="shape-rendering:geometricPrecision; text-rendering:geometricPrecision; image-rendering:optimizeQuality; fill-rule:evenodd; clip-rule:evenodd"
viewBox="0 0 729.81 711.62"
 xmlns:xlink="http://www.w3.org/1999/xlink"
 xmlns:xodm="http://www.corel.com/coreldraw/odm/2003">
 <defs>
  <style type="text/css">
   <![CDATA[
    .str0 {stroke:black;stroke-width:2.23;stroke-linecap:round;stroke-linejoin:round;stroke-miterlimit:22.9256}
    .fil0 {fill:black}
   ]]>
  </style>
 </defs>
 <g id="Camada_x0020_1">
  <metadata id="CorelCorpID_0Corel-Layer"/>
  <path class="fil0 str0" d="M129.96 1.12l469.89 0c71.24,0 128.84,57.6 128.84,128.84l0 451.71c0,71.24 -57.6,128.84 -128.84,128.84l-469.89 0c-71.24,0 -128.84,-57.6 -128.84,-128.84l0 -451.71c0,-71.24 57.6,-128.84 128.84,-128.84zm135.51 185.53l0 311.04c0,3.33 -1.52,4.85 -4.24,4.85l-59.42 0c-2.73,0 -3.94,-1.52 -3.94,-4.85l0 -311.04c0,-2.73 1.52,-3.94 4.24,-3.94l59.12 0c1.82,-0.3 3.64,0.91 3.94,3.03 0.3,0.3 0.3,0.61 0.3,0.91zm174.62 320.74c-22.43,0.3 -44.87,-4.24 -65.18,-13.64 -19.1,-8.79 -34.86,-23.34 -45.78,-41.23 -11.22,-18.49 -16.67,-41.53 -16.67,-69.12 -0.3,-22.43 5.46,-44.56 16.67,-63.97 11.52,-19.71 28.19,-36.08 48.2,-46.99 21.22,-11.82 46.69,-17.58 76.7,-17.58 1.52,0 3.64,0 6.37,0.3 2.73,0.3 5.76,0.3 9.4,0.61l-0 -95.8c0,-2.12 0.91,-3.33 3.03,-3.33l61.54 0c1.52,-0.3 2.73,0.91 3.03,2.12 0,0.3 0,0.61 0,0.61l0 288.61c0,5.46 0.3,11.52 0.61,18.19 0.61,6.37 0.91,12.43 1.21,17.58 0,2.12 -0.91,3.94 -3.03,4.85 -15.76,6.67 -32.44,11.52 -49.41,14.55 -15.16,2.73 -30.92,4.24 -46.69,4.24zm29.71 -60.63l0 -133.39c-2.73,-0.61 -5.46,-1.21 -8.19,-1.52 -3.33,-0.3 -6.67,-0.61 -10,-0.61 -11.82,0 -23.65,2.43 -34.26,7.88 -10.31,5.15 -19.1,12.73 -25.77,22.43 -6.67,9.7 -10,22.74 -10,38.5 -0.3,10.61 1.52,21.22 5.15,31.23 3.03,8.18 7.58,15.46 13.64,21.52 5.76,5.46 12.73,9.7 20.61,12.13 8.19,2.73 16.67,3.94 25.16,3.94 4.55,0 8.79,-0.3 12.73,-0.61 3.94,0.3 7.58,-0.3 10.91,-1.52z"/>
 </g>
</svg>
