<?xml version="1.0" encoding="UTF-8"?>
<!DOCTYPE svg PUBLIC "-//W3C//DTD SVG 1.1//EN" "http://www.w3.org/Graphics/SVG/1.1/DTD/svg11.dtd">
<!-- Creator: CorelDRAW 2021 (64 Bit) -->
<svg xmlns="http://www.w3.org/2000/svg" xml:space="preserve" width="64.3819mm" height="64.3818mm" version="1.1" style="shape-rendering:geometricPrecision; text-rendering:geometricPrecision; image-rendering:optimizeQuality; fill-rule:evenodd; clip-rule:evenodd"
viewBox="0 0 969.31 969.31"
 xmlns:xlink="http://www.w3.org/1999/xlink"
 xmlns:xodm="http://www.corel.com/coreldraw/odm/2003">
 <defs>
  <style type="text/css">
   <![CDATA[
    .fil0 {fill:black;fill-rule:nonzero}
   ]]>
  </style>
 </defs>
 <g id="Camada_x0020_1">
  <metadata id="CorelCorpID_0Corel-Layer"/>
  <path class="fil0" d="M969.31 591.03l0 -558.89c0,-17.74 -14.38,-32.13 -32.13,-32.13l-740.66 0 -164.38 0c-17.75,0 -32.14,14.39 -32.14,32.13l0 163.89 0 741.16c0,17.74 14.39,32.13 32.14,32.13l259.06 0 0 -249.15c0,0 4.2,-17.88 11.69,-38.17l0.21 -0.75c9.11,-24.55 22.94,-52.29 39.84,-55.89 -16.9,3.58 -30.73,31.18 -39.84,55.6l121.79 -378.43 46.47 -144.52c2.28,-6.9 7.7,-15.88 14.55,-21.3 7.01,-5.63 15.46,-7.65 23.53,0 0.53,0.53 1.06,1.01 1.54,1.48 3.77,4.14 7.44,10.57 10.84,19.81l45.95 144.52 115.79 364.14c-10.32,-22.95 -21.98,-34.92 -33.86,-37.07 11.88,2.16 23.54,14.19 33.86,37.26 5.89,13.19 11.36,30 16.2,50.61l0 251.83 237.43 0c17.75,0 32.13,-14.39 32.13,-32.13l0 -346.15zm-412.56 -273.44l-120.89 0 -94.2 292.71c1.46,-0.22 2.95,-0.35 4.48,-0.37 20.18,-0.3 34.2,17.48 43.26,33.35 8.58,15.03 15.65,32.85 21.59,50.97 15.17,-34.81 39.07,-68.74 72.44,-77.34 25.43,-6.55 47.8,4.5 64.73,23.41 12.69,14.17 22.61,32.7 30.42,52.04 9.22,-26.99 22.33,-53.96 40.43,-68.13 9.75,-7.63 20.89,-11.31 32.17,-9.64l-94.44 -296.99zm-208.65 307.45c18.08,1.55 39.27,31.81 61.76,120.91 0,212.69 0,223.36 0,223.36l169.96 0c0,0 0,-91.67 0,-223.38 15.01,-71.01 38.87,-112.98 62.72,-116.45 -23.85,3.45 -47.72,45.21 -62.72,115.85 -47.8,-185.9 -142.55,-117.7 -169.96,0 -22.49,-88.65 -43.67,-118.75 -61.76,-120.3z"/>
 </g>
</svg>
